<?xml version="1.0" encoding="UTF-8"?>
<svg id="Layer_1" xmlns="http://www.w3.org/2000/svg" xmlns:xlink="http://www.w3.org/1999/xlink" viewBox="0 0 1133 1133">
  <defs>
    <linearGradient id="linear-gradient" x1="566.5" y1="1133" x2="566.5" y2="0" gradientUnits="userSpaceOnUse">
      <stop offset="0" stop-color="#000"/>
      <stop offset="1" stop-color="#4d4d4d"/>
    </linearGradient>
  </defs>
  <circle cx="566.5" cy="566.5" r="566.5" style="fill: url(#linear-gradient);"/>
  <g>
    <path d="M472.09,863.94c-24.52,0-49.06-9.54-68.18-28.66l-168.25-168.27c-36.99-37.7-36.99-98.65-.22-136.11l278.48-278.5c12.64-12.64,33.12-12.64,45.76,0l258.88,258.86c6.07,6.07,9.48,14.3,9.48,22.88s-3.41,16.81-9.48,22.88l-278.28,278.26c-19.12,19.12-43.65,28.66-68.19,28.66ZM536.8,321.04l-255.38,255.4c-12.02,12.26-12.02,32.56.22,45.04l168.03,168.04c13.22,13.21,31.66,13.21,44.85,0l255.4-255.38-213.12-213.1Z" style="fill: #fff;"/>
    <path d="M504.44,437.07c-8.28,0-16.56-3.16-22.88-9.48l-161.79-161.79c-12.64-12.64-12.64-33.12,0-45.76s33.12-12.64,45.76,0l161.79,161.79c12.64,12.64,12.64,33.12,0,45.76-6.32,6.32-14.6,9.48-22.88,9.48Z" style="fill: #fff;"/>
    <path d="M730.96,631.22H245.58c-17.87,0-32.36-14.47-32.36-32.36s14.49-32.36,32.36-32.36h485.38c17.89,0,32.36,14.49,32.36,32.36s-14.47,32.36-32.36,32.36Z" style="fill: #fff;"/>
    <path d="M828.03,922.43c-53.53,0-97.07-43.54-97.07-97.07,0-38.77,21.42-66.39,38.61-88.57,12.67-16.34,23.57-30.43,26.67-46.83,2.84-15.29,16.21-26.39,31.79-26.39s28.94,11.09,31.79,26.39c3.1,16.4,14,30.49,26.67,46.83,17.19,22.18,38.61,49.8,38.61,88.57,0,53.53-43.54,97.07-97.07,97.07ZM828.03,766.93c-2.46,3.22-4.9,6.38-7.3,9.48-15.55,20.07-25.06,33.15-25.06,48.95,0,17.85,14.5,32.36,32.36,32.36s32.36-14.5,32.36-32.36c0-15.8-9.51-28.88-25.06-48.95-2.4-3.1-4.83-6.26-7.3-9.48Z" style="fill: #fff;"/>
  </g>
</svg>