<?xml version="1.0" encoding="UTF-8"?>
<svg id="Layer_1" xmlns="http://www.w3.org/2000/svg" version="1.1" viewBox="0 0 132.4 132.4">
  <!-- Generator: Adobe Illustrator 29.3.1, SVG Export Plug-In . SVG Version: 2.1.0 Build 151)  -->
  <defs>
    <style>
      .st0 {
        fill: #6567ce;
      }

      .st1 {
        opacity: .2;
      }
    </style>
  </defs>
  <rect class="st1" width="132.4" height="132.4" rx="32.2" ry="32.2"/>
  <path class="st0" d="M94,105.9h-11.9c-2.2,0-4-1.8-4-4s1.8-4,4-4h7.9v-63.6h-7.9c-2.2,0-4-1.8-4-4s1.8-4,4-4h11.9c2.2,0,4,1.8,4,4v71.5c0,2.2-1.8,4-4,4Z"/>
  <path class="st0" d="M50.3,105.9h-11.9c-2.2,0-4-1.8-4-4V30.4c0-2.2,1.8-4,4-4h11.9c2.2,0,4,1.8,4,4s-1.8,4-4,4h-7.9v63.6h7.9c2.2,0,4,1.8,4,4s-1.8,4-4,4Z"/>
</svg>