<svg xmlns="http://www.w3.org/2000/svg" width="24" height="24" viewBox="0 0 24 24" fill="none" stroke="currentColor" strokeWidth="2" strokeLinecap="round" strokeLinejoin="round">
  <path stroke="none" d="M0 0h24v24H0z" fill="none" />
  <path fill="#8B5CF6" stroke="#8B5CF6" d="M4 4m0 2a2 2 0 0 1 2 -2h2a2 2 0 0 1 2 2v1a2 2 0 0 1 -2 2h-2a2 2 0 0 1 -2 -2z" />
  <path d="M4 13m0 2a2 2 0 0 1 2 -2h2a2 2 0 0 1 2 2v3a2 2 0 0 1 -2 2h-2a2 2 0 0 1 -2 -2z" fill="#3B82F6" stroke="#3B82F6" />
  <path d="M14 4m0 2a2 2 0 0 1 2 -2h2a2 2 0 0 1 2 2v3a2 2 0 0 1 -2 2h-2a2 2 0 0 1 -2 -2z" fill="#F59E0B" stroke="#F59E0B" />
  <path d="M14 15m0 2a2 2 0 0 1 2 -2h2a2 2 0 0 1 2 2v1a2 2 0 0 1 -2 2h-2a2 2 0 0 1 -2 -2z" fill="#10B981" stroke="#10B981" />
</svg>