<?xml version="1.0" encoding="UTF-8"?>
<svg id="Layer_1" data-name="Layer 1" xmlns="http://www.w3.org/2000/svg" viewBox="0 0 77.6 70.54">
  <path d="M63.49,56.43c-1.95,0-3.53-1.58-3.53-3.53V10.58c0-1.94-1.58-3.53-3.53-3.53H10.58c-1.95,0-3.53-1.58-3.53-3.53s1.58-3.53,3.53-3.53h45.85c5.83,0,10.58,4.75,10.58,10.58v42.32c0,1.95-1.58,3.53-3.53,3.53Z" style="fill: #55a0ff;"/>
  <path d="M67.01,70.54H24.68c-5.83,0-10.58-4.75-10.58-10.58V24.69h-7.05c-3.89,0-7.05-3.16-7.05-7.05v-7.05C0,4.75,4.75,0,10.58,0s10.58,4.75,10.58,10.58v49.38c0,1.95,1.58,3.53,3.53,3.53s3.53-1.58,3.53-3.53v-3.53c0-3.89,3.16-7.05,7.05-7.05h35.27c3.89,0,7.05,3.17,7.05,7.05v3.53c0,5.83-4.75,10.58-10.58,10.58ZM34.67,63.49h32.35c1.95,0,3.53-1.58,3.53-3.53v-3.53h-35.27v3.53c0,1.24-.21,2.42-.6,3.53ZM10.58,7.05c-1.94,0-3.53,1.58-3.53,3.53v7.05h7.05v-7.05c0-1.94-1.58-3.53-3.53-3.53Z" style="fill: #55a0ff;"/>
</svg>