<?xml version="1.0" encoding="UTF-8"?>
<svg id="Layer_1" xmlns="http://www.w3.org/2000/svg" version="1.1" viewBox="0 0 132.4 132.4">
  <!-- Generator: Adobe Illustrator 29.3.1, SVG Export Plug-In . SVG Version: 2.1.0 Build 151)  -->
  <defs>
    <style>
      .st0 {
        fill: #139ae1;
      }

      .st1 {
        fill: #181824;
      }
    </style>
  </defs>
  <rect class="st0" width="132.4" height="132.4" rx="32.2" ry="32.2"/>
  <g>
    <path class="st1" d="M91,105.2h-49.6c-2,0-3.5-1.6-3.5-3.5s1.6-3.5,3.5-3.5h49.6c2,0,3.5-1.6,3.5-3.5v-44.6l-15.6-15.6h-30.4c-2,0-3.5,1.6-3.5,3.5v14.2c0,2-1.6,3.5-3.5,3.5s-3.5-1.6-3.5-3.5v-14.2c0-5.9,4.8-10.6,10.6-10.6h31.9c.9,0,1.8.4,2.5,1l17.7,17.7c.7.7,1,1.6,1,2.5v46.1c0,5.9-4.8,10.6-10.6,10.6Z"/>
    <path class="st1" d="M98.1,55.6h-14.2c-5.9,0-10.6-4.8-10.6-10.6v-14.2c0-2,1.6-3.5,3.5-3.5s3.5,1.6,3.5,3.5v14.2c0,2,1.6,3.5,3.5,3.5h14.2c2,0,3.5,1.6,3.5,3.5s-1.6,3.5-3.5,3.5Z"/>
    <path class="st1" d="M44.9,91c-.9,0-1.8-.3-2.5-1l-10.6-10.6c-1.4-1.4-1.4-3.6,0-5l10.6-10.6c1.4-1.4,3.6-1.4,5,0s1.4,3.6,0,5l-8.1,8.1,8.1,8.1c1.4,1.4,1.4,3.6,0,5s-1.6,1-2.5,1Z"/>
    <path class="st1" d="M59.1,91c-.9,0-1.8-.3-2.5-1-1.4-1.4-1.4-3.6,0-5l8.1-8.1-8.1-8.1c-1.4-1.4-1.4-3.6,0-5s3.6-1.4,5,0l10.6,10.6c1.4,1.4,1.4,3.6,0,5l-10.6,10.6c-.7.7-1.6,1-2.5,1Z"/>
  </g>
</svg>