<?xml version="1.0" encoding="UTF-8"?>
<svg id="Layer_1" data-name="Layer 1" xmlns="http://www.w3.org/2000/svg" viewBox="0 0 71.9 16.92">
  <path d="M4.86,7.78l-1.42-.4c-.42-.1-.71-.28-.71-.59,0-.35.37-.57.81-.57.51,0,.88.27.88.8h2.45c.03-2.06-1.84-2.78-3.38-2.78C1.51,4.25.14,5.5.14,6.7c0,.69.07,2.06,2.47,2.71l1.07.28c.62.14.81.27.81.53,0,.38-.46.66-1,.66-.74,0-1.05-.48-1.05-.87H0c0,1.86,1.73,2.86,3.57,2.86,1.65,0,3.52-.86,3.52-2.67,0-.56-.17-1.86-2.23-2.42Z" style="fill: #fff;"/>
  <path d="M13.94,4.25c-.84,0-1.93.33-2.53,1.08v-.87h-2.59v12.25h2.59v-4.96c.6.78,1.7,1.13,2.53,1.13,2.06,0,4-1.67,4-4.32s-1.94-4.3-4-4.3ZM13.4,10.47c-.98,0-1.89-.85-1.89-1.92s.89-1.89,1.89-1.89,1.91.86,1.91,1.89-.88,1.92-1.91,1.92Z" style="fill: #fff;"/>
  <path d="M27.06,5.81l-.42-.42v.03c-.8-.73-1.88-1.17-3.03-1.17-2.34,0-4.45,1.72-4.45,4.32s2.11,4.3,4.45,4.3c1.84,0,3.54-1.07,4.18-2.78.19-.46.28-.98.28-1.52,0-1.1-.38-2.04-1.01-2.77ZM23.61,10.47c-1,0-1.81-.78-1.81-1.89s.81-1.92,1.81-1.92,1.81.79,1.81,1.92-.81,1.89-1.81,1.89Z" style="fill: #f9d542;"/>
  <path d="M33.04,4.46V1.52h-2.6v2.94h-1.49v1.96h1.49v2.77l2.6,2.6v-5.37h1.72v-1.96h-1.72Z" style="fill: #fff;"/>
  <path d="M36.19,0v12.66h2.59V0h-2.59Z" style="fill: #fff;"/>
  <path d="M40.97,4.46v8.2h2.6V4.46h-2.6ZM42.27.21c-.88,0-1.61.65-1.61,1.51s.73,1.51,1.61,1.51,1.58-.69,1.58-1.51-.71-1.51-1.58-1.51Z" style="fill: #fff;"/>
  <path d="M51.81,4.46v.89c-.62-.78-1.71-1.1-2.54-1.1-2.04,0-3.97,1.65-3.97,4.3s1.93,4.32,3.97,4.32c.84,0,1.93-.35,2.54-1.13v.24c0,1.88-.86,2.64-2.22,2.64-.86,0-1.65-.55-1.95-1.21l-2.14.86c.65,1.55,2.23,2.64,4.09,2.64,2.97,0,4.8-1.75,4.8-5.24v-7.21h-2.58ZM49.82,10.47c-1.02,0-1.89-.88-1.89-1.92s.87-1.89,1.89-1.89,1.88.84,1.88,1.89-.88,1.92-1.88,1.92Z" style="fill: #fff;"/>
  <path d="M61.52,4.25c-.73,0-2.06.46-2.36,1.52V0h-2.59v12.66h2.59v-4.25c0-1.37.88-1.75,1.59-1.75.65,0,1.42.51,1.42,1.75v4.25h2.6v-4.41c0-2.51-1.07-4-3.25-4Z" style="fill: #fff;"/>
  <path d="M70.19,4.46V1.52h-2.6v2.94h-1.5v1.96h1.5v6.24h2.6v-6.24h1.72v-1.96h-1.72Z" style="fill: #fff;"/>
</svg>