<?xml version="1.0" encoding="UTF-8"?>
<svg id="Layer_1" xmlns="http://www.w3.org/2000/svg" version="1.1" viewBox="0 0 132.44 132.44">
  <!-- Generator: Adobe Illustrator 29.2.0, SVG Export Plug-In . SVG Version: 2.1.0 Build 108)  -->
  <defs>
    <style>
      .st0 {
        fill: #1f5ce1;
      }

      .st1 {
        fill: #fff;
      }
    </style>
  </defs>
  <rect class="st0" width="132.44" height="132.44" rx="32.19" ry="32.19"/>
  <g>
    <path class="st1" d="M85.92,91.29c-.92,0-1.83-.35-2.53-1.05l-7.16-7.16c-1.4-1.4-1.4-3.67,0-5.07s3.67-1.4,5.07,0l4.63,4.63,11.8-11.8c1.4-1.4,3.67-1.4,5.07,0s1.4,3.67,0,5.07l-14.33,14.33c-.7.7-1.62,1.05-2.53,1.05Z"/>
    <path class="st1" d="M64.44,105.61c-1.86,0-3.72-.48-5.38-1.44l-25.06-14.32c-3.32-1.92-5.38-5.48-5.39-9.3v-28.66c0-3.83,2.06-7.39,5.37-9.3l25.09-14.34c3.31-1.91,7.42-1.9,10.73,0l25.06,14.32c3.33,1.92,5.39,5.49,5.39,9.31v7.16c0,1.98-1.6,3.58-3.58,3.58s-3.58-1.6-3.58-3.58v-7.16c0-1.27-.69-2.46-1.79-3.09l-25.06-14.32c-1.12-.65-2.49-.65-3.6,0l-25.09,14.34c-1.09.63-1.77,1.82-1.78,3.09v28.65c0,1.27.69,2.46,1.79,3.1l25.06,14.32c1.12.65,2.49.65,3.59.01l7.19-4.1c1.72-.98,3.91-.38,4.89,1.34.98,1.72.38,3.9-1.34,4.89l-7.16,4.09c-1.64.95-3.49,1.43-5.35,1.43Z"/>
    <path class="st1" d="M80.55,60.56c-.6,0-1.21-.15-1.78-.47l-32.24-18.45c-1.71-.98-2.31-3.17-1.33-4.89.98-1.71,3.16-2.31,4.89-1.33l32.24,18.45c1.71.98,2.31,3.17,1.33,4.89-.66,1.16-1.87,1.8-3.11,1.8Z"/>
    <path class="st1" d="M64.43,69.8c-.62,0-1.23-.16-1.78-.48l-31.2-17.91c-1.71-.98-2.31-3.17-1.32-4.89.98-1.72,3.17-2.31,4.89-1.32l29.42,16.89,29.42-16.89c1.72-.99,3.91-.39,4.89,1.32.99,1.72.39,3.91-1.32,4.89l-31.2,17.91c-.55.32-1.17.48-1.78.48Z"/>
    <path class="st1" d="M64.43,105.62c-1.98,0-3.58-1.6-3.58-3.58v-35.82c0-1.98,1.6-3.58,3.58-3.58s3.58,1.6,3.58,3.58v35.82c0,1.98-1.6,3.58-3.58,3.58Z"/>
  </g>
</svg>