<?xml version="1.0" encoding="UTF-8"?>
<svg id="Layer_1" data-name="Layer 1" xmlns="http://www.w3.org/2000/svg" viewBox="0 0 76 76">
  <path d="M56.01,19.99C52.32,8.42,41.47,0,28.67,0,12.86,0,0,12.86,0,28.67c0,12.8,8.42,23.66,19.99,27.34,1.34,4.33,3.74,8.28,7.05,11.59,5.42,5.42,12.63,8.4,20.29,8.4,15.8,0,28.67-12.86,28.67-28.67,0-12.8-8.42-23.66-19.99-27.34ZM53.43,28.33l-5.77-5.77c1.77,0,3.51.21,5.16.6.39,1.66.6,3.39.6,5.16ZM23.01,42.5c.18-.92.41-1.81.7-2.69l12.47,12.47c-.9.29-1.83.53-2.79.7h-.02l-10.37-10.46v-.02ZM25.35,35.93v-.02c.37-.74.8-1.46,1.25-2.14l15.63,15.63c-.68.45-1.4.88-2.14,1.25l-14.73-14.71ZM29,30.67c.55-.58,1.11-1.17,1.71-1.71l16.33,16.33c-.55.6-1.13,1.17-1.71,1.71l-16.33-16.33ZM33.83,26.58c.7-.47,1.42-.9,2.16-1.27l14.69,14.69c-.37.74-.8,1.46-1.27,2.16l-15.59-15.59ZM39.87,23.7c.88-.27,1.79-.51,2.73-.68l10.39,10.39c-.18.94-.41,1.85-.68,2.73l-12.43-12.43ZM18.94,51.47c-8.85-3.8-15.04-12.59-15.04-22.8C3.9,15.01,15.01,3.9,28.67,3.9c10.21,0,19.02,6.22,22.8,15.06-1.34-.21-2.73-.31-4.13-.31-1.27,0-2.51.08-3.74.25h-.02c-2.46.31-4.81.95-7.03,1.87h-.04c-.21.08-.43.18-.64.27-10.11,4.42-17.21,14.54-17.21,26.29,0,1.4.1,2.79.29,4.13ZM22.55,47.59l5.83,5.87c-1.79-.02-3.53-.23-5.2-.62-.39-1.68-.6-3.43-.62-5.24ZM47.33,72.1c-10.21,0-19.02-6.22-22.8-15.06,1.34.21,2.73.31,4.13.31,14.56,0,26.6-10.87,28.43-24.92v-.02c.18-1.23.25-2.47.25-3.74,0-1.4-.1-2.79-.31-4.13,8.85,3.78,15.06,12.59,15.06,22.8,0,13.66-11.11,24.77-24.77,24.77Z" style="fill: #77cbb9;"/>
  <path d="M36.5,20.77c-.21.08-.43.18-.64.27.19-.19.41-.27.64-.27Z" style="fill: #77cbb9;"/>
</svg>